<svg id="Capa_1" enable-background="new 0 0 512 512" height="512" viewBox="0 0 512 512" width="512" xmlns="http://www.w3.org/2000/svg"><g><path d="m440.68 163.6c-24.55 22.85-53.53 40.54-86.14 52.6-31.28 11.57-64.44 17.44-98.54 17.44s-67.26-5.87-98.54-17.44c-32.61-12.06-61.59-29.75-86.14-52.6l20.44-21.96c44.52 41.43 104.38 62.14 164.24 62.14s119.72-20.71 164.24-62.14z" fill="#ff7cb8"/><path d="m439.75 239.45c-52.38 41.31-118.06 61.97-183.75 61.97s-131.37-20.66-183.75-61.97l18.58-23.56c47.08 37.14 106.13 55.71 165.17 55.71s118.09-18.57 165.17-55.71z" fill="#ff7cb8"/><path d="m421.17 215.89 18.58 23.56c-52.38 41.31-118.06 61.97-183.75 61.97v-29.82c59.04 0 118.09-18.57 165.17-55.71z" fill="#c331c8"/><path d="m354.54 216.2c-31.28 11.57-64.44 17.44-98.54 17.44v-29.86c59.86 0 119.72-20.71 164.24-62.14l20.44 21.96c-24.55 22.85-53.53 40.54-86.14 52.6z" fill="#c331c8"/><path d="m93.78 109.71v387.29h-73.14v-387.29c0-20.19 16.37-36.57 36.57-36.57 10.1 0 19.24 4.1 25.86 10.71 6.62 6.62 10.71 15.77 10.71 25.86z" fill="#293f7f"/><path d="m93.78 109.71v387.29h-36.57v-423.86c10.1 0 19.24 4.1 25.86 10.71 6.62 6.62 10.71 15.77 10.71 25.86z" fill="#152453"/><path d="m0 482h114.42v30h-114.42z" fill="#00e7f0"/><path d="m57.21 482h57.21v30h-57.21z" fill="#00abe9"/><ellipse cx="57.21" cy="40.5" fill="#00e7f0" rx="40.5" ry="40.5" transform="matrix(.707 -.707 .707 .707 -11.881 52.316)"/><path d="m97.71 40.5c0 22.371-18.129 40.5-40.5 40.5v-81c22.371 0 40.5 18.129 40.5 40.5z" fill="#00abe9"/><path d="m491.36 109.71v387.29h-73.14v-387.29c0-20.19 16.37-36.57 36.57-36.57 10.1 0 19.24 4.1 25.86 10.71 6.62 6.62 10.71 15.77 10.71 25.86z" fill="#293f7f"/><path d="m491.36 109.71v387.29h-36.57v-423.86c10.1 0 19.24 4.1 25.86 10.71 6.62 6.62 10.71 15.77 10.71 25.86z" fill="#152453"/><path d="m397.58 482h114.42v30h-114.42z" fill="#00e7f0"/><path d="m454.79 482h57.21v30h-57.21z" fill="#00abe9"/><ellipse cx="454.79" cy="40.5" fill="#00e7f0" rx="40.5" ry="40.5" transform="matrix(.707 -.707 .707 .707 104.567 333.447)"/><path d="m495.29 40.5c0 22.371-18.129 40.5-40.5 40.5v-81c22.371 0 40.5 18.129 40.5 40.5z" fill="#00abe9"/></g></svg>