<svg xmlns="http://www.w3.org/2000/svg" xmlns:xlink="http://www.w3.org/1999/xlink" version="1.1" x="0px" y="0px" viewBox="0 0 1920 1080" style="enable-background:new 0 0 1920 1080;" xml:space="preserve">
<style type="text/css">
	.st0{opacity:0.1;fill:#2A94F4;}
	.st1{fill:#2A94F4;}
	.st2{fill:#FFBE55;}
	.st3{fill:#CCE9FF;}
	.st4{fill:#FFE3CA;}
	.st5{fill-rule:evenodd;clip-rule:evenodd;fill:#0B4870;}
	.st6{fill-rule:evenodd;clip-rule:evenodd;fill:#FE9EF2;}
	.st7{fill:#FCD2B1;}
	.st8{fill:#D3D3D3;}
	.st9{fill:#F7F7F7;}
	.st10{fill-rule:evenodd;clip-rule:evenodd;fill:#2A94F4;}
</style>
<g id="Background">
	<path class="st0" d="M904.61,1039.16c-16.97-2.68-212.23-1.29-316.56-0.34c-35.71,0.32-64.82-28.53-64.82-64.24v0   c0-35.48,28.76-64.25,64.25-64.25h133.26c29.73,0,53.83-24.1,53.83-53.83v0c0-29.73-24.1-53.83-53.83-53.83H495.65   c-92.04,0-166.65-74.61-166.65-166.65v0c0-92.04,74.61-166.65,166.65-166.65h201.6c47.46,0,85.94-38.48,85.94-85.94v0   c0-47.46-38.48-85.94-85.94-85.94H560.6c-48.28,0-87.41-39.14-87.41-87.41v0c0-48.28,39.14-87.41,87.41-87.41H796.2   c13.03,0,23.59-10.56,23.59-23.59v0c0-13.03-10.56-23.59-23.59-23.59H637.29c-16.31,0-29.54-13.22-29.54-29.54v0   c0-16.31,13.22-29.54,29.54-29.54h307.98c282.51,0,511.52,229.02,511.52,511.52v0c0,282.51-229.02,511.52-511.52,511.52h-37.26   C906.87,1039.46,905.73,1039.34,904.61,1039.16z"/>
	<g>
		<path class="st1" d="M792.52,331.3c-4.13,1.81-8.54,3.02-13.13,3.6c4.73-2.82,8.33-7.25,10.03-12.6    c-4.41,2.63-9.27,4.48-14.45,5.52c-4.18-4.45-10.14-7.21-16.65-7.21c-12.62,0-22.78,10.24-22.78,22.8c0,1.81,0.15,3.54,0.53,5.2    c-18.95-0.92-35.72-10.01-46.98-23.84c-1.97,3.41-3.12,7.32-3.12,11.52c0,7.89,4.06,14.89,10.12,18.94    c-3.66-0.07-7.25-1.13-10.3-2.81c0,0.07,0,0.16,0,0.25c0,11.08,7.9,20.28,18.26,22.4c-1.86,0.51-3.88,0.75-5.98,0.75    c-1.46,0-2.93-0.08-4.32-0.39c2.95,9.03,11.33,15.66,21.3,15.88c-7.75,6.07-17.6,9.72-28.26,9.72c-1.87,0-3.66-0.08-5.45-0.31    c10.1,6.51,22.06,10.23,34.97,10.23c41.94,0,64.87-34.74,64.87-64.86c0-1.01-0.03-1.98-0.08-2.95    C785.62,339.92,789.42,335.92,792.52,331.3z"/>
		<path class="st2" d="M660.77,395.01H549.23c-2.09,0-3.78,1.69-3.78,3.78v5.39c0,2.09,1.69,3.78,3.78,3.78h111.54    c2.09,0,3.78-1.69,3.78-3.78v-5.39C664.55,396.7,662.86,395.01,660.77,395.01z"/>
		<path class="st2" d="M660.76,323.59h-62.9c-2.09,0-3.78,1.69-3.78,3.78v5.39c0,2.09,1.69,3.78,3.78,3.78h62.9    c2.09,0,3.78-1.69,3.78-3.78v-5.39C664.54,325.29,662.85,323.59,660.76,323.59z"/>
		<path class="st2" d="M660.77,359.3h-45.65c-2.09,0-3.78,1.69-3.78,3.78v5.39c0,2.09,1.69,3.78,3.78,3.78h45.65    c2.09,0,3.78-1.69,3.78-3.78v-5.39C664.55,360.99,662.86,359.3,660.77,359.3z"/>
	</g>
	<g>
		<path class="st1" d="M753.71,756.89c-2.79,1.22-5.76,2.03-8.86,2.43c3.19-1.9,5.62-4.89,6.76-8.5c-2.97,1.77-6.25,3.02-9.75,3.72    c-2.82-3-6.84-4.86-11.23-4.86c-8.51,0-15.36,6.91-15.36,15.38c0,1.22,0.1,2.39,0.36,3.51c-12.78-0.62-24.09-6.75-31.69-16.08    c-1.33,2.3-2.1,4.94-2.1,7.77c0,5.32,2.74,10.04,6.83,12.78c-2.47-0.05-4.89-0.76-6.95-1.89c0,0.05,0,0.11,0,0.17    c0,7.47,5.33,13.68,12.32,15.11c-1.25,0.34-2.62,0.51-4.03,0.51c-0.98,0-1.98-0.06-2.91-0.26c1.99,6.09,7.64,10.56,14.37,10.71    c-5.23,4.09-11.87,6.56-19.06,6.56c-1.26,0-2.47-0.06-3.68-0.21c6.81,4.39,14.88,6.9,23.58,6.9c28.29,0,43.76-23.43,43.76-43.75    c0-0.68-0.02-1.34-0.06-1.99C749.06,762.71,751.62,760,753.71,756.89z"/>
		<path class="st2" d="M663.92,799.86h-73.38c-1.92,0-3.48,1.56-3.48,3.48v1.77c0,1.92,1.56,3.48,3.48,3.48h73.38    c1.92,0,3.48-1.56,3.48-3.48v-1.77C667.4,801.42,665.84,799.86,663.92,799.86z"/>
		<path class="st2" d="M663.91,751.69h-40.57c-1.92,0-3.48,1.56-3.48,3.48v1.77c0,1.92,1.56,3.48,3.48,3.48h40.57    c1.92,0,3.48-1.56,3.48-3.48v-1.77C667.39,753.25,665.84,751.69,663.91,751.69z"/>
		<path class="st2" d="M663.92,775.78h-28.94c-1.92,0-3.48,1.56-3.48,3.48v1.77c0,1.92,1.56,3.48,3.48,3.48h28.94    c1.92,0,3.48-1.56,3.48-3.48v-1.77C667.4,777.33,665.84,775.78,663.92,775.78z"/>
	</g>
	<g>
		<path class="st1" d="M1226.12,16.73c-6.47,2.84-13.36,4.72-20.55,5.63c7.39-4.41,13.04-11.35,15.69-19.71    c-6.89,4.11-14.5,7.01-22.62,8.63C1192.1,4.32,1182.77,0,1172.6,0c-19.74,0-35.64,16.03-35.64,35.67c0,2.83,0.24,5.55,0.83,8.13    c-29.65-1.45-55.89-15.66-73.51-37.3c-3.08,5.34-4.88,11.45-4.88,18.03c0,12.35,6.36,23.3,15.84,29.64    c-5.73-0.11-11.35-1.77-16.11-4.39c0,0.11,0,0.25,0,0.39c0,17.33,12.36,31.73,28.57,35.04c-2.9,0.79-6.07,1.17-9.35,1.17    c-2.28,0-4.59-0.13-6.75-0.61c4.62,14.12,17.73,24.51,33.32,24.84c-12.13,9.49-27.54,15.21-44.22,15.21    c-2.92,0-5.73-0.13-8.54-0.49c15.8,10.19,34.52,16,54.71,16c65.63,0,101.51-54.36,101.51-101.49c0-1.58-0.05-3.1-0.13-4.61    C1215.33,30.23,1221.27,23.95,1226.12,16.73z"/>
		<path class="st2" d="M1025.83,59.7H919.91c-2.47,0-4.47-2-4.47-4.47v-3.55c0-2.47,2-4.47,4.47-4.47h105.92    c2.47,0,4.47,2,4.47,4.47v3.55C1030.3,57.7,1028.3,59.7,1025.83,59.7z"/>
		<path class="st2" d="M1025.82,128.57h-59.01c-2.47,0-4.47-2-4.47-4.47v-3.55c0-2.47,2-4.47,4.47-4.47h59.01    c2.47,0,4.47,2,4.47,4.47v3.55C1030.29,126.57,1028.29,128.57,1025.82,128.57z"/>
		<path class="st2" d="M1025.83,94.13H866.04c-2.47,0-4.47-2-4.47-4.47v-3.55c0-2.47,2-4.47,4.47-4.47h159.79    c2.47,0,4.47,2,4.47,4.47v3.55C1030.3,92.13,1028.3,94.13,1025.83,94.13z"/>
	</g>
	<g>
		<g>
			<g>
				<path class="st3" d="M784.17,43.64c-3.24,1.42-6.7,2.37-10.3,2.82c3.71-2.21,6.53-5.69,7.86-9.88      c-3.46,2.06-7.27,3.52-11.34,4.33c-3.28-3.49-7.96-5.66-13.06-5.66c-9.9,0-17.86,8.03-17.86,17.88c0,1.42,0.12,2.78,0.41,4.08      c-14.86-0.72-28.01-7.85-36.85-18.7c-1.54,2.68-2.45,5.74-2.45,9.04c0,6.19,3.19,11.68,7.94,14.86      c-2.87-0.05-5.69-0.89-8.08-2.2c0,0.05,0,0.13,0,0.2c0,8.69,6.2,15.9,14.32,17.56c-1.46,0.4-3.04,0.59-4.69,0.59      c-1.14,0-2.3-0.07-3.38-0.31c2.32,7.08,8.89,12.28,16.7,12.45c-6.08,4.76-13.8,7.62-22.16,7.62c-1.47,0-2.87-0.07-4.28-0.25      c7.92,5.11,17.3,8.02,27.42,8.02c32.89,0,50.88-27.25,50.88-50.87c0-0.79-0.03-1.55-0.07-2.31      C778.76,50.4,781.74,47.25,784.17,43.64z"/>
			</g>
			<path class="st3" d="M683.78,65.17h-53.09c-1.24,0-2.24-1-2.24-2.24v-1.78c0-1.24,1-2.24,2.24-2.24h53.09     c1.24,0,2.24,1,2.24,2.24v1.78C686.02,64.17,685.01,65.17,683.78,65.17z"/>
			<path class="st3" d="M683.77,99.69h-29.58c-1.24,0-2.24-1-2.24-2.24v-1.78c0-1.24,1-2.24,2.24-2.24h29.58     c1.24,0,2.24,1,2.24,2.24v1.78C686.01,98.69,685.01,99.69,683.77,99.69z"/>
			<path class="st3" d="M683.78,82.43h-80.09c-1.24,0-2.24-1-2.24-2.24v-1.78c0-1.24,1-2.24,2.24-2.24h80.09     c1.24,0,2.24,1,2.24,2.24v1.78C686.02,81.43,685.01,82.43,683.78,82.43z"/>
		</g>
	</g>
	<g>
		<g>
			<g>
				<path class="st3" d="M1181.43,278.24c-3.24,1.42-6.7,2.37-10.3,2.82c3.71-2.21,6.53-5.69,7.86-9.88      c-3.46,2.06-7.27,3.52-11.34,4.33c-3.28-3.49-7.96-5.66-13.06-5.66c-9.9,0-17.86,8.03-17.86,17.88c0,1.42,0.12,2.78,0.41,4.08      c-14.86-0.72-28.01-7.85-36.85-18.7c-1.54,2.68-2.45,5.74-2.45,9.04c0,6.19,3.19,11.68,7.94,14.86      c-2.87-0.05-5.69-0.89-8.08-2.2c0,0.05,0,0.13,0,0.2c0,8.69,6.2,15.9,14.32,17.56c-1.46,0.4-3.04,0.59-4.69,0.59      c-1.14,0-2.3-0.07-3.38-0.31c2.32,7.08,8.89,12.28,16.7,12.45c-6.08,4.76-13.8,7.62-22.16,7.62c-1.47,0-2.87-0.07-4.28-0.25      c7.92,5.11,17.3,8.02,27.42,8.02c32.89,0,50.88-27.25,50.88-50.87c0-0.79-0.03-1.55-0.07-2.31      C1176.02,285.01,1179,281.86,1181.43,278.24z"/>
			</g>
			<path class="st3" d="M1081.04,299.78h-53.09c-1.24,0-2.24-1-2.24-2.24v-1.78c0-1.24,1-2.24,2.24-2.24h53.09     c1.24,0,2.24,1,2.24,2.24v1.78C1083.27,298.78,1082.27,299.78,1081.04,299.78z"/>
			<path class="st3" d="M1081.03,334.3h-29.58c-1.24,0-2.24-1-2.24-2.24v-1.78c0-1.24,1-2.24,2.24-2.24h29.58     c1.24,0,2.24,1,2.24,2.24v1.78C1083.27,333.29,1082.27,334.3,1081.03,334.3z"/>
			<path class="st3" d="M1081.04,317.04h-80.09c-1.24,0-2.24-1-2.24-2.24v-1.78c0-1.24,1-2.24,2.24-2.24h80.09     c1.24,0,2.24,1,2.24,2.24v1.78C1083.27,316.04,1082.27,317.04,1081.04,317.04z"/>
		</g>
	</g>
	<g>
		<path class="st1" d="M1402.34,631.29c-4.42,1.94-9.13,3.23-14.05,3.85c5.05-3.02,8.91-7.76,10.72-13.47    c-4.71,2.81-9.91,4.79-15.46,5.9c-4.47-4.76-10.85-7.71-17.81-7.71c-13.5,0-24.36,10.95-24.36,24.38c0,1.93,0.16,3.79,0.56,5.56    c-20.27-0.99-38.2-10.7-50.25-25.5c-2.1,3.65-3.34,7.83-3.34,12.32c0,8.44,4.35,15.93,10.83,20.26c-3.92-0.07-7.76-1.21-11.01-3    c0,0.07,0,0.17,0,0.27c0,11.85,8.45,21.69,19.53,23.95c-1.98,0.54-4.15,0.8-6.39,0.8c-1.56,0-3.14-0.09-4.62-0.42    c3.16,9.65,12.12,16.75,22.78,16.98c-8.29,6.49-18.83,10.4-30.23,10.4c-2,0-3.92-0.09-5.83-0.33c10.8,6.96,23.6,10.94,37.4,10.94    c44.86,0,69.38-37.16,69.38-69.37c0-1.08-0.04-2.12-0.09-3.15C1394.96,640.52,1399.02,636.23,1402.34,631.29z"/>
		<path class="st2" d="M1264.75,650.54h-89.66c-2.09,0-3.78-1.69-3.78-3.78v-3.01c0-2.09,1.69-3.78,3.78-3.78h89.66    c2.09,0,3.78,1.69,3.78,3.78v3.01C1268.54,648.85,1266.84,650.54,1264.75,650.54z"/>
		<path class="st2" d="M1264.75,708.84h-49.95c-2.09,0-3.78-1.69-3.78-3.78v-3.01c0-2.09,1.69-3.78,3.78-3.78h49.95    c2.09,0,3.78,1.69,3.78,3.78v3.01C1268.53,707.15,1266.83,708.84,1264.75,708.84z"/>
		<path class="st2" d="M1264.75,679.69h-35.88c-2.09,0-3.78-1.69-3.78-3.78v-3.01c0-2.09,1.69-3.78,3.78-3.78h35.88    c2.09,0,3.78,1.69,3.78,3.78v3.01C1268.54,678,1266.84,679.69,1264.75,679.69z"/>
	</g>
	<g>
		<path class="st3" d="M1469.9,286.59c-2.26,0.99-4.68,1.65-7.19,1.97c2.59-1.55,4.56-3.97,5.49-6.9c-2.41,1.44-5.08,2.45-7.92,3.02    c-2.29-2.44-5.56-3.95-9.12-3.95c-6.91,0-12.48,5.61-12.48,12.49c0,0.99,0.08,1.94,0.29,2.85c-10.38-0.51-19.56-5.48-25.73-13.06    c-1.08,1.87-1.71,4.01-1.71,6.31c0,4.32,2.23,8.16,5.55,10.38c-2.01-0.04-3.97-0.62-5.64-1.54c0,0.04,0,0.09,0,0.14    c0,6.07,4.33,11.11,10,12.27c-1.02,0.28-2.12,0.41-3.27,0.41c-0.8,0-1.61-0.05-2.36-0.21c1.62,4.94,6.21,8.58,11.67,8.7    c-4.25,3.32-9.64,5.32-15.48,5.32c-1.02,0-2.01-0.05-2.99-0.17c5.53,3.57,12.08,5.6,19.15,5.6c22.97,0,35.53-19.03,35.53-35.52    c0-0.55-0.02-1.08-0.05-1.61C1466.13,291.31,1468.21,289.12,1469.9,286.59z"/>
		<path class="st3" d="M1398.56,317.53h-59.12c-1.38,0-2.49,1.12-2.49,2.49V322c0,1.38,1.12,2.49,2.49,2.49h59.12    c1.38,0,2.49-1.12,2.49-2.49v-1.98C1401.05,318.64,1399.94,317.53,1398.56,317.53z"/>
		<path class="st3" d="M1398.56,279.09h-32.94c-1.38,0-2.49,1.12-2.49,2.49v1.98c0,1.38,1.12,2.49,2.49,2.49h32.94    c1.38,0,2.49-1.12,2.49-2.49v-1.98C1401.05,280.21,1399.93,279.09,1398.56,279.09z"/>
		<path class="st3" d="M1398.56,298.31h-23.66c-1.38,0-2.49,1.12-2.49,2.49v1.98c0,1.38,1.12,2.49,2.49,2.49h23.66    c1.38,0,2.49-1.12,2.49-2.49v-1.98C1401.05,299.43,1399.94,298.31,1398.56,298.31z"/>
	</g>
	<g>
		<path class="st3" d="M516.04,519.38c-2.26,0.99-4.68,1.65-7.19,1.97c2.59-1.55,4.56-3.97,5.49-6.9c-2.41,1.44-5.08,2.45-7.92,3.02    c-2.29-2.44-5.56-3.95-9.12-3.95c-6.91,0-12.48,5.61-12.48,12.49c0,0.99,0.08,1.94,0.29,2.85c-10.38-0.51-19.56-5.48-25.73-13.06    c-1.08,1.87-1.71,4.01-1.71,6.31c0,4.32,2.23,8.16,5.55,10.38c-2.01-0.04-3.97-0.62-5.64-1.54c0,0.04,0,0.09,0,0.14    c0,6.07,4.33,11.11,10,12.27c-1.02,0.28-2.12,0.41-3.27,0.41c-0.8,0-1.61-0.05-2.36-0.21c1.62,4.94,6.21,8.58,11.67,8.7    c-4.25,3.32-9.64,5.32-15.48,5.32c-1.02,0-2.01-0.05-2.99-0.17c5.53,3.57,12.08,5.6,19.15,5.6c22.97,0,35.53-19.03,35.53-35.52    c0-0.55-0.02-1.08-0.05-1.61C512.26,524.11,514.34,521.91,516.04,519.38z"/>
		<path class="st3" d="M444.69,518.86h-59.12c-1.38,0-2.49-1.12-2.49-2.49v-1.98c0-1.38,1.12-2.49,2.49-2.49h59.12    c1.38,0,2.49,1.12,2.49,2.49v1.98C447.19,517.74,446.07,518.86,444.69,518.86z"/>
		<path class="st3" d="M444.69,557.29h-32.94c-1.38,0-2.49-1.12-2.49-2.49v-1.98c0-1.38,1.12-2.49,2.49-2.49h32.94    c1.38,0,2.49,1.12,2.49,2.49v1.98C447.18,556.18,446.06,557.29,444.69,557.29z"/>
		<path class="st3" d="M444.69,538.07h-23.66c-1.38,0-2.49-1.12-2.49-2.49v-1.98c0-1.38,1.12-2.49,2.49-2.49h23.66    c1.38,0,2.49,1.12,2.49,2.49v1.98C447.19,536.96,446.07,538.07,444.69,538.07z"/>
	</g>
	<ellipse class="st0" cx="945.94" cy="1062.57" rx="245.43" ry="17.43"/>
</g>
<g id="Character">
	<g>
		<path class="st4" d="M864.87,1045.87c7.53,1.12,15.32,0.49,22.58-1.82c-0.51-8.88-1.02-17.75-1.53-26.63    c-0.06-1.12-0.15-2.3-0.74-3.25c-0.88-1.39-2.63-1.93-4.26-2.22c-6.15-1.08-15.51-1.42-15.72,6.28    C864.96,1027.44,864.99,1036.67,864.87,1045.87z"/>
		<path class="st4" d="M977.06,1045.87c7.68,1.12,15.39,0.49,22.35-1.82c-1.64-8.88-3.29-17.75-4.93-26.63    c-0.21-1.12-0.44-2.3-1.16-3.25c-1.06-1.39-2.88-1.93-4.54-2.22c-6.29-1.08-15.7-1.42-14.92,6.28    C974.79,1027.44,976,1036.67,977.06,1045.87z"/>
		<path class="st5" d="M966.74,670.32C966.74,670.32,966.74,670.32,966.74,670.32c-9.51-28.61-60.13-23.73-86.79-14.15    c-5.84,2.1-14.36,4.13-18.35,10.16c-3.57,5.4-7.29,18.64-6.37,30.8c-0.43,1.84-0.77,3.78-0.99,5.86    c-3.51,34.25,5.8,262.28,9.26,313.46h23.33c1.51-4.33,26.96-247.82,30.49-269.55c1.12,3.84,49.69,220.87,55.97,269.55h23.33    C997.2,1012.2,971.52,679.67,966.74,670.32z"/>
		<path class="st2" d="M956.75,480.72c6.53,9.66,4.66,177.24,14.74,199.62c1.58,3.5,3.45,7,3.78,10.76    c0.33,3.76-1.31,7.96-5.11,9.66c-2.23,1-4.83,1-7.32,0.99c-33.66-0.22-67.32-0.44-100.98-0.65c-2.24-0.01-4.63-0.07-6.46-1.21    c-4.04-2.52-2.64-8-1.19-12.19c9.71-28.04-12.09-172.78-7.25-202.11c11.88-14.5,21.38-24.6,69.54-24.6    C950.28,460.97,950.9,472.05,956.75,480.72z"/>
		<path class="st6" d="M807.77,576.75c-0.05,0.19-0.07,0.38-0.07,0.57C807.72,577.13,807.75,576.94,807.77,576.75z"/>
		<g>
			<path class="st5" d="M958.86,413.28c-1.6,2.69-3.64,1.96-3.54-1.14c0.33-9.92,0.68-11.47-3.81-20.36     c-2.47-4.89-3.26-5.31-1.01-6.97C957.99,379.31,972.14,391.05,958.86,413.28z"/>
			<path class="st7" d="M930.03,427.21c-3.3-14.56-14.31-17.97-20.72-14.47c-4.1,27.25-8.29,39.36-18.97,54.23     c13.28,8.51,35.95,6.93,40.85,0C931.39,464.78,931.73,434.74,930.03,427.21z"/>
			<path class="st4" d="M916.88,388.34c10.07-12.47,30.51-10.23,37.9,5.17c6.76,14.1-0.65,43.89-6.5,50.1     c-10.23,10.84-31.93-1.58-34.95-9.71C908.9,421.99,908.41,398.82,916.88,388.34z"/>
			<path class="st5" d="M922.18,392.41c0.62,2.27-4.74,32.43-5.57,32.09c-2.96-1.22-6.73-9.69-12.32-9.37     c-1.79,0.1-4.25,1.26-4.32-2.32c-0.44-22.66-1.33-21.51,2.71-23.58C911.59,384.65,921.07,388.36,922.18,392.41z"/>
			<path class="st5" d="M897.4,378.27c18.49-12.98,48.81-17.9,57.58-12.73c13.07,7.68,3.46,29.62-1.45,30.83     c-2.24,0.55-4.29-1.21-6.2-2.51c-9.04-6.16-17.14-1.45-23.94-0.2C911.35,395.87,881.65,389.33,897.4,378.27z"/>
			<path class="st4" d="M899.38,411.66c-0.35,3.66,0.8,7.43,3.12,10.28c6.64,8.15,13.3-2.87,11.76-9.73     C912.42,404.03,900.32,401.72,899.38,411.66z"/>
		</g>
		<path class="st5" d="M1048.6,1058.91c0.33-3.69-3.17-6.75-6.77-7.6s-7.37-0.2-11.07-0.25c-10.56-0.12-20.83-6.46-25.67-15.85    c-0.67-1.29-1.31-2.72-2.58-3.43c-1.69-0.95-3.87-0.24-5.37,0.99s-2.55,2.9-3.92,4.27c-2.45,2.45-5.94,3.81-9.4,3.76    c-2.9-0.04-6.14-2.26-8.93-0.79c-2.46,1.29-3.12,4.69-3.74,7.12c-1.07,4.18-2.05,8.39-3.07,12.58c-0.23,0.93-0.45,1.9-0.52,2.86    h79.29C1047.81,1061.55,1048.47,1060.3,1048.6,1058.91z"/>
		<path class="st5" d="M897.5,1058.91c0.15-3.69-1.39-6.75-2.98-7.6c-1.58-0.86-4.06-7.04-7.33-16.09c-1.5-4.14-9.86-5.3-14.03,1.83    c-1.35,2.31-2.61,3.81-4.13,3.76c-1.27-0.04-2.7-2.26-3.92-0.79c-1.08,1.29-1.37,4.69-1.64,7.12c-0.47,4.18-0.9,8.39-1.35,12.58    c-0.1,0.93-0.2,1.9-0.23,2.86h34.85C897.15,1061.55,897.44,1060.3,897.5,1058.91z"/>
		<path class="st4" d="M1078.72,499.68l-43.68,27.5c0.11,4.94,1.26,10.21,2.08,14.23c1.01,5,15.84,4.06,19.05,1.6    C1059.58,540.4,1079.8,537.75,1078.72,499.68z"/>
		<path class="st8" d="M1043.73,535.27h22.37c1.32,0,2.7-1.07,3.07-2.4l13.66-47.48c0.37-1.32-0.4-2.4-1.73-2.4h-22.37    c-1.32,0-2.7,1.07-3.07,2.4l-13.66,47.48C1041.64,534.2,1042.41,535.27,1043.73,535.27z"/>
		<path class="st9" d="M1041.55,535.27h22.37c1.32,0,2.7-1.07,3.07-2.4l13.66-47.48c0.37-1.32-0.4-2.4-1.73-2.4h-22.37    c-1.32,0-2.7,1.07-3.07,2.4l-13.66,47.48C1039.46,534.2,1040.23,535.27,1041.55,535.27z"/>
		<path class="st10" d="M1043.4,532.69h20.16c1.19,0,2.43-0.97,2.77-2.16l12.31-42.8c0.33-1.19-0.36-2.16-1.56-2.16h-20.16    c-1.19,0-2.43,0.97-2.77,2.16l-12.31,42.8C1041.51,531.73,1042.2,532.69,1043.4,532.69z"/>
		<path class="st4" d="M1038.73,527.75c3.31-4.04,7.9-10.68,9.97-13.16c0.55-0.65,1.25-1.19,1.68-1.92c0.44-0.73,0.53-1.78-0.1-2.35    c-0.81-0.73-2.09-0.19-3.02,0.38c-4.55,2.76-9.38,5.84-11.36,10.78c-0.69,1.72-0.9,3.76-0.86,5.89    C1035.04,527.37,1038.91,528.32,1038.73,527.75z"/>
		<path class="st4" d="M841.79,488.41c0,0-64.86,78.27-67.55,89.01c-2.27,9.09,53.13,64.72,70.27,81.67    c2.86,2.82,3.22,7.31,0.85,10.56l-14.5,16.88c-0.81,0.94-0.45,2.39,0.7,2.85l0,0c5.04,2.02,10.77,1.33,15.2-1.82l4.86-3.45    c4.42-3.14,7.64-7.7,9.14-12.91h0c1.74-6.04,0.54-12.55-3.23-17.59l-2.96-3.94l-43.71-68.26l48.88-65.26L841.79,488.41z"/>
		<path class="st4" d="M972.04,490.56l-14.57,34.95c0,0,11.16,82.25,32.19,95.22c21.03,12.97,57.56-75.85,57.56-75.85l-10.59-10.27    l-38.68,49.49L972.04,490.56z"/>
		<path class="st2" d="M878.98,463.93c0,0-23.47,0.98-60.34,50.92l30.17,37.5l30.17-24.38    C878.98,527.97,917.51,504.32,878.98,463.93z"/>
		<path class="st2" d="M939.98,463.93c0,0,38.25,8.46,45.53,68.76l-36.33,13.47C949.18,546.16,930.55,472.64,939.98,463.93z"/>
		<g>
			<g>
				<g>
					<path class="st1" d="M1150.51,405.4c-3.46,1.52-7.14,2.52-10.98,3.01c3.95-2.36,6.96-6.06,8.38-10.53       c-3.68,2.2-7.75,3.75-12.08,4.61c-3.5-3.72-8.48-6.03-13.92-6.03c-10.55,0-19.04,8.56-19.04,19.06c0,1.51,0.13,2.96,0.44,4.34       c-15.84-0.77-29.86-8.36-39.27-19.93c-1.64,2.85-2.61,6.12-2.61,9.63c0,6.6,3.4,12.45,8.46,15.83       c-3.06-0.06-6.06-0.95-8.61-2.35c0,0.06,0,0.13,0,0.21c0,9.26,6.6,16.95,15.27,18.72c-1.55,0.42-3.24,0.63-5,0.63       c-1.22,0-2.45-0.07-3.61-0.33c2.47,7.55,9.47,13.09,17.8,13.27c-6.48,5.07-9.74,16.42,1.05,16.42       c35.06,0,54.23-29.04,54.23-54.22c0-0.84-0.03-1.66-0.07-2.46C1144.74,412.61,1147.92,409.26,1150.51,405.4z"/>
				</g>
				<g>
					<path class="st1" d="M1108.82,469.75c-8.84,6.91-21.33,16.57-32.16,24.57c-3.76,2.78-8.66-1.53-6.38-5.62       c3.55-6.36,7-13.8,9.04-21.49c0.47-1.77,1.99-3.05,3.81-3.21l22.63-2.01C1110.07,461.6,1112.24,467.08,1108.82,469.75z"/>
				</g>
			</g>
		</g>
	</g>
</g>
</svg>